<!DOCTYPE svg PUBLIC "-//W3C//DTD SVG 1.1//EN" "http://www.w3.org/Graphics/SVG/1.1/DTD/svg11.dtd">
<!-- Uploaded to: SVG Repo, www.svgrepo.com, Transformed by: SVG Repo Mixer Tools -->
<svg fill="#000000" version="1.1" id="Capa_1" xmlns="http://www.w3.org/2000/svg" xmlns:xlink="http://www.w3.org/1999/xlink" width="800px" height="800px" viewBox="0 0 45.999 45.999" xml:space="preserve">
<g id="SVGRepo_bgCarrier" stroke-width="0"/>
<g id="SVGRepo_tracerCarrier" stroke-linecap="round" stroke-linejoin="round"/>
<g id="SVGRepo_iconCarrier"> <g> <g> <path d="M7.889,24.879H4.007C1.794,24.879,0,26.668,0,28.882v10.134c0,2.213,1.794,3.996,4.007,3.996h3.882 c2.214,0,4.012-1.781,4.012-3.996V28.882C11.901,26.668,10.103,24.879,7.889,24.879z M8.961,36.836 c0,0.604-0.467,1.062-1.072,1.062H4.007c-0.604,0-1.067-0.459-1.067-1.062v-7.955c0-0.604,0.463-1.062,1.067-1.062h3.882 c0.604,0,1.072,0.457,1.072,1.062V36.836z"/> <path d="M17.203,11.167c-3.513,0.467-5.981,3.695-5.513,7.209l0.029,0.211c0.186,1.393,1.374,2.429,2.78,2.429h7.104 c1.406,0,2.595-1.036,2.78-2.43l0.029-0.212c0.068-0.54,0.074-1.129,0-1.696C23.943,13.165,20.716,10.698,17.203,11.167z"/> <circle cx="18.051" cy="5.665" r="4.536"/> <path d="M42.381,25.984H28.316c-1.989,0-3.616,1.604-3.616,3.594v9.115c0,1.99,1.626,3.631,3.616,3.631h1.201 c0.023,1.432,1.176,2.546,2.588,2.546h6.486c1.412,0,2.564-1.114,2.588-2.546h1.2c1.99,0,3.619-1.641,3.619-3.631v-9.115 C46,27.588,44.372,25.984,42.381,25.984z M43.375,38.693c0,0.543-0.449,0.951-0.993,0.951H28.316 c-0.543,0-0.989-0.408-0.989-0.951v-9.115c0-0.542,0.446-0.969,0.989-0.969h14.064c0.544,0,0.993,0.427,0.993,0.969L43.375,38.693 L43.375,38.693z"/> <path d="M22.241,28.838l-2.685-1.822v-3.174c0-0.822-0.668-1.487-1.488-1.487c-0.821,0-1.489,0.665-1.489,1.487v3.178l-2.68,1.818 c-0.68,0.46-0.857,1.385-0.396,2.062c0.287,0.425,0.754,0.652,1.23,0.652c0.287,0,0.577-0.082,0.832-0.256l2.502-1.697 l2.501,1.697c0.256,0.174,0.546,0.256,0.833,0.256c0.476,0,0.945-0.228,1.232-0.652C23.096,30.223,22.919,29.298,22.241,28.838z"/> </g> </g> </g>
</svg>